PathFileType	4	(X/Y/Z)	C:\Users\Basilio\Documents\Thesis Gigler\squatting_fais\c3dfiles\040\SLS_pre_back3\markers_experimental.trc
DataRate	CameraRate	NumFrames	NumMarkers	Units	OrigDataRate	OrigDataStartFrame	OrigNumFrames
200.000000	200.000000	4	63	mm	200.000000	1057	1410
Frame#	Time	FHD			LBHD			RBHD			C7			T10			CLAV			LSHO			LUUPA			LMUPA			LDUPA			LLEP			LMEP			LRAD			LUL			LRFIN			RSHO			RUPA1			RMUPA			RDUPA			RLEP			RMEP			RRAD			RUL			RUFIN			LASI			RASI			USACR			LSACR			RSACR			LTHI1			LTHI2			LTHI3			LTHI4			LLFC			LMFC			LTIB1			LTIB2			LTIB3			LTIB4			LLMAL			LMMAL			LHEE			LMT1			LMT2			LMT5			RTHI			RTHI2			RTHI3			RTHI4			RLFC			RMFC			RTIB1			RTIB2			RTIB3			RTIB4			RLMAL			RMMAL			RHEE			RMT1			RMT2			RMT5			*61			*62			
		X1	Y1	Z1	X2	Y2	Z2	X3	Y3	Z3	X4	Y4	Z4	X5	Y5	Z5	X6	Y6	Z6	X7	Y7	Z7	X8	Y8	Z8	X9	Y9	Z9	X10	Y10	Z10	X11	Y11	Z11	X12	Y12	Z12	X13	Y13	Z13	X14	Y14	Z14	X15	Y15	Z15	X16	Y16	Z16	X17	Y17	Z17	X18	Y18	Z18	X19	Y19	Z19	X20	Y20	Z20	X21	Y21	Z21	X22	Y22	Z22	X23	Y23	Z23	X24	Y24	Z24	X25	Y25	Z25	X26	Y26	Z26	X27	Y27	Z27	X28	Y28	Z28	X29	Y29	Z29	X30	Y30	Z30	X31	Y31	Z31	X32	Y32	Z32	X33	Y33	Z33	X34	Y34	Z34	X35	Y35	Z35	X36	Y36	Z36	X37	Y37	Z37	X38	Y38	Z38	X39	Y39	Z39	X40	Y40	Z40	X41	Y41	Z41	X42	Y42	Z42	X43	Y43	Z43	X44	Y44	Z44	X45	Y45	Z45	X46	Y46	Z46	X47	Y47	Z47	X48	Y48	Z48	X49	Y49	Z49	X50	Y50	Z50	X51	Y51	Z51	X52	Y52	Z52	X53	Y53	Z53	X54	Y54	Z54	X55	Y55	Z55	X56	Y56	Z56	X57	Y57	Z57	X58	Y58	Z58	X59	Y59	Z59	X60	Y60	Z60	X61	Y61	Z61	X62	Y62	Z62	X63	Y63	Z63	

1058	5.285	-87.74848937988283	1689.359497070313	-1236.250854492188	-206.9689331054688	1626.434936523438	-1277.536743164063	-254.3493347167969	1579.496337890625	-1146.314453125	-248.6670837402344	1480.678100585938	-1195.046875	-372.5031738281251	1203.67724609375	-1165.5966796875	-132.7100067138672	1395.833374023438	-1207.661254882813	-189.8125915527344	1473.693237304688	-1336.535278320313	-40.71831130981446	1445.274047851563	-1425.317993164063	-10.57061767578125	1458.420166015625	-1387.845458984375	27.96280097961426	1437.475830078125	-1430.875122070313	87.28102111816408	1415.310668945313	-1434.7548828125	81.32331848144533	1360.126831054688	-1401.07958984375	355.4539184570313	1446.670043945313	-1324.399291992188	356.6560058593751	1464.415405273438	-1399.2392578125	448.4385986328126	1474.4306640625	-1327.104858398438	-153.5304412841797	1457.840698242188	-1070.307861328125	-0.7881019115448	1399.934814453125	-986.7273559570315	27.6587314605713	1420.792114257813	-1020.862182617188	66.86688232421876	1385.342529296875	-991.307556152344	129.3971557617188	1376.961181640625	-1002.785888671875	120.372428894043	1319.685668945313	-1047.909301757813	378.2802124023438	1431.115478515625	-1152.118286132813	396.8731079101564	1416.28515625	-1079.159545898438	474.2192687988282	1436.696044921875	-1161.931030273438	-285.9172058105469	980.3227539062502	-1265.892822265625	-275.8548889160157	975.4122314453127	-1045.700561523438	-438.5644836425782	1084.218139648438	-1147.374877929688	-460.1802978515626	1058.467529296875	-1175.01708984375	-456.3260803222657	1058.736450195313	-1118.12451171875	-340.1612548828126	737.4671630859376	-1319.041015625	-274.3434448242188	684.0252075195314	-1325.337890625	-232.2139892578126	705.1721191406251	-1329.335205078125	-269.0288085937501	627.9263305664064	-1304.611328125	-201.7437286376954	520.5146484375001	-1289.0712890625	-206.7488555908204	513.9749755859376	-1163.422973632813	-207.4802246093751	302.7215881347657	-1224.005004882813	-282.8648376464844	280.1492919921876	-1264.55322265625	-245.1365509033204	264.8341369628907	-1246.41259765625	-260.8012084960938	191.1858062744141	-1202.437377929688	-348.1413879394532	121.5740661621094	-1209.648315429688	-314.3072814941407	140.5551300048828	-1128.50634765625	-413.166961669922	95.53770446777345	-1156.220458984375	-201.1311492919922	57.75094604492189	-1134.192016601563	-201.4106597900391	51.19717025756837	-1181.004150390625	-252.5118255615235	35.21739959716798	-1228.499755859375	-388.393035888672	728.0470581054689	-968.6995849609377	-368.7470397949219	665.4398193359376	-972.9131469726565	-336.9838256835938	658.5184936523439	-979.2811279296877	-415.2444458007814	595.8669433593751	-978.6422119140627	-452.5574035644532	492.0856018066407	-988.8898925781252	-455.0428466796876	487.5115051269532	-1117.481079101563	-609.6961669921876	399.3120117187501	-1024.504516601563	-697.3287353515626	461.5005798339845	-1004.745666503906	-694.0731201171876	415.5595703125001	-1015.523010253906	-736.1260375976564	393.7688903808595	-1051.22314453125	-862.5197753906252	426.5148925781251	-1039.434814453125	-835.4506835937502	418.4862365722657	-1124.98095703125	-901.5007324218752	491.6947326660157	-1097.101440429688	-889.743591308594	273.1628723144532	-1132.275146484375	-897.1562500000002	268.8485107421876	-1091.795776367188	-937.3422851562502	301.9503173828126	-1045.573120117188	nan	nan	nan	nan	nan	nan	
1059	5.29	-88.50156402587892	1691.599853515625	-1236.2744140625	-207.8692016601563	1628.641845703125	-1277.6650390625	-255.1486206054688	1581.517700195313	-1146.45654296875	-249.2957305908204	1482.38671875	-1195.15966796875	-371.8766784667969	1205.26025390625	-1165.556884765625	-133.4620513916016	1398.1005859375	-1207.730590820313	-190.8290557861328	1475.841918945313	-1336.631591796875	-41.53428649902344	1447.473388671875	-1425.38671875	-10.54842758178711	1459.996459960938	-1388.069702148438	27.10339546203614	1439.426391601563	-1430.85205078125	86.93048095703126	1417.149291992188	-1434.810180664063	80.46831512451173	1362.10791015625	-1401.048095703125	354.6878967285157	1449.035766601563	-1324.291870117188	356.6736755371094	1466.02490234375	-1399.405883789063	447.1233520507814	1476.715454101563	-1327.3564453125	-153.9594116210938	1460.1123046875	-1070.337280273438	-1.621690630912781	1401.308227539063	-987.1841430664065	26.8617057800293	1422.636474609375	-1021.040954589844	66.9789505004883	1387.593872070313	-990.7827148437502	128.4879150390625	1380.230834960938	-1003.167358398438	119.4890670776367	1321.211059570313	-1048.54052734375	378.2453918457032	1433.36181640625	-1152.190795898438	396.1611633300782	1418.826416015625	-1079.126220703125	473.3013000488282	1439.0400390625	-1161.869750976563	-285.4045104980469	981.9760742187502	-1266.043090820313	-274.7157592773438	977.3816528320315	-1045.82666015625	-437.7083435058595	1085.302612304688	-1147.436157226563	-459.357879638672	1059.63134765625	-1174.970458984375	-455.2620544433595	1059.978515625	-1118.041015625	-340.0560302734376	738.4207153320314	-1319.071166992188	-274.5275573730469	684.8478393554689	-1325.393432617188	-232.305160522461	705.8316650390626	-1329.475219726563	-269.1728820800782	628.7272949218751	-1304.67578125	-202.6594696044922	521.0786132812501	-1289.195190429688	-207.7673645019532	514.3729858398439	-1163.354614257813	-208.4529113769532	303.1003112792969	-1223.998413085938	-283.0812988281251	280.3600769042969	-1264.732299804688	-244.2918853759766	265.4198303222657	-1247.48486328125	-261.1187438964844	191.5934448242188	-1202.6572265625	-348.2550659179688	121.6014175415039	-1209.747680664063	-314.3255920410157	140.6151733398438	-1128.561401367188	-412.8702697753907	95.21655273437501	-1156.37939453125	-201.1562805175782	57.77438735961915	-1134.254272460938	-201.4743957519532	51.24825668334962	-1181.0859375	-252.5990142822266	35.26211547851563	-1228.58642578125	-386.5987854003907	729.6564331054689	-968.8606567382815	-367.0982971191407	666.1822509765626	-972.5903320312502	-335.4222106933594	660.0550537109376	-979.166198730469	-413.8107910156251	597.6539916992189	-978.5585937500002	-450.6646728515626	493.2838439941407	-988.8069458007815	-454.5841064453126	489.6341552734376	-1118.346435546875	-607.4826660156251	400.8177795410157	-1024.301879882813	-695.1992797851564	462.1550598144532	-1004.719543457031	-691.9541015625001	416.3357543945314	-1015.51416015625	-734.3821411132814	395.5792541503907	-1050.146484375	-860.5989990234377	426.6250915527345	-1039.4599609375	-833.4526977539065	418.9440917968751	-1124.9580078125	-900.045593261719	492.2232360839845	-1096.892211914063	-887.4877929687502	273.1671142578126	-1132.147338867188	-895.101501464844	269.1197814941407	-1091.5546875	-934.8223876953127	302.2629394531251	-1045.553588867188	nan	nan	nan	nan	nan	nan	
1060	5.295	-89.36819458007814	1693.646118164063	-1236.262939453125	-209.0231933593751	1631.012573242188	-1277.728271484375	-256.0204162597657	1583.803955078125	-1146.67724609375	-249.842758178711	1484.418579101563	-1195.124633789063	-372.0568542480469	1206.60107421875	-1165.795654296875	-134.368637084961	1400.593505859375	-1207.81201171875	-192.1026153564454	1478.01025390625	-1336.658325195313	-42.56022644042969	1449.419067382813	-1425.564086914063	-12.28006172180176	1462.384155273438	-1388.112915039063	26.21224212646485	1441.557983398438	-1430.912475585938	85.63211822509767	1419.408203125	-1435.10107421875	79.71348571777345	1363.891479492188	-1400.954223632813	353.7582702636719	1451.486328125	-1324.385986328125	355.2199096679688	1468.194580078125	-1399.467407226563	446.5548706054689	1478.807739257813	-1327.413940429688	-154.7918243408203	1462.110473632813	-1070.18994140625	-2.03943681716919	1403.122436523438	-987.2989501953127	26.1765537261963	1424.577392578125	-1021.049743652344	66.20476531982423	1389.741333007813	-990.930847167969	127.9121170043946	1381.664306640625	-1003.211791992188	118.9577026367188	1323.798583984375	-1047.944946289063	377.1197509765626	1435.655395507813	-1152.3095703125	395.6161193847657	1421.087646484375	-1078.983764648438	472.7669982910157	1441.32763671875	-1162.097778320313	-284.4660949707032	983.5969848632815	-1266.402954101563	-273.9047546386719	978.918395996094	-1045.779907226563	-437.2463684082032	1086.7431640625	-1147.455078125	-458.769744873047	1060.932006835938	-1175.19189453125	-454.3273315429689	1061.245727539063	-1118.084350585938	-340.0301208496094	739.7231445312501	-1319.21142578125	-274.6874694824219	685.5538940429689	-1325.453979492188	-232.4564056396485	706.4459838867189	-1329.535522460938	-270.6279296875001	629.6501464843751	-1304.8291015625	-203.7229766845704	521.6557006835939	-1289.091674804688	-208.2619171142579	514.7962036132814	-1163.3017578125	-208.8596496582032	303.5692749023438	-1224.139282226563	-283.7133789062501	280.7118225097657	-1264.765991210938	-244.7436523437501	265.9615783691407	-1247.8017578125	-261.3730163574219	191.9689483642578	-1202.846557617188	-348.3358764648438	121.6526412963867	-1209.756958007813	-314.4364624023438	140.6659698486328	-1128.730224609375	-412.9021606445314	95.27080535888673	-1156.387939453125	-201.1298980712891	57.79662704467775	-1134.25146484375	-201.4244689941407	51.20961761474611	-1181.064086914063	-252.608871459961	35.23271179199219	-1228.597534179688	-385.227508544922	730.9855957031251	-968.9147949218752	-365.4059143066407	667.9772949218751	-972.7422485351565	-333.5411987304688	661.6552734375001	-979.5210571289065	-411.7405090332032	599.0989990234376	-978.5523071289065	-448.5640563964845	494.8122863769532	-988.7014770507815	-450.1687011718751	489.2663879394532	-1117.036743164063	-605.3951416015626	401.7881469726564	-1024.365478515625	-693.2412719726564	463.1038818359376	-1004.399963378906	-689.7306518554689	417.4448852539064	-1015.299377441406	-731.6956787109376	395.4086303710939	-1050.751220703125	-858.3467407226565	427.4388427734376	-1039.080200195313	-831.0037841796877	419.2859802246095	-1124.518676757813	-897.5229492187502	492.2526855468751	-1096.682250976563	-884.9602661132815	273.5503234863282	-1131.937622070313	-892.7598876953127	269.2400512695313	-1091.488037109375	-932.7649536132815	302.5841674804688	-1045.295288085938	nan	nan	nan	nan	nan	nan	
1061	5.3	-90.80440521240236	1696.12548828125	-1236.537109375	-209.9216461181641	1633.2177734375	-1277.910400390625	-257.2863159179688	1586.175048828125	-1146.688232421875	-250.8126678466797	1486.565795898438	-1195.073486328125	-371.6646423339844	1208.088989257813	-1165.726440429688	-134.539535522461	1403.15478515625	-1207.935302734375	-192.9364624023438	1479.92578125	-1336.731201171875	-43.44377517700196	1451.379272460938	-1425.560180664063	-12.62089824676514	1464.088134765625	-1388.16748046875	25.41219711303712	1443.485229492188	-1431.051147460938	85.33042907714845	1420.892456054688	-1435.189453125	79.0582733154297	1365.629150390625	-1401.103515625	352.7880554199219	1453.671264648438	-1324.723876953125	354.7309875488282	1469.778564453125	-1399.521850585938	445.7317504882814	1480.921875	-1327.56298828125	-155.6681060791016	1464.121948242188	-1070.133911132813	-2.504323244094849	1405.306518554688	-987.2421875000002	25.82249450683594	1426.534301757813	-1021.0439453125	65.53258514404298	1391.766479492188	-991.1041259765627	127.5360412597657	1383.348388671875	-1003.238342285156	118.5164337158203	1325.171142578125	-1048.609375	376.1435852050782	1437.907836914063	-1152.244995117188	395.116424560547	1423.327392578125	-1079.056518554688	472.2020568847657	1443.7626953125	-1162.287353515625	-283.6843872070313	985.2261962890627	-1266.653564453125	-272.7272338867188	980.5308837890627	-1046.190063476563	-436.4276733398439	1087.997436523438	-1147.563842773438	-457.8853759765626	1062.024169921875	-1175.215942382813	-453.4899291992189	1062.350830078125	-1118.160034179688	-339.8791198730469	740.9168090820314	-1319.148071289063	-274.8407287597657	686.4692382812501	-1325.368530273438	-232.5572814941407	707.0966186523439	-1329.569458007813	-271.3715209960938	630.8278808593751	-1304.860473632813	-204.4414672851563	522.1510009765626	-1289.09326171875	-208.6730499267579	515.2858886718751	-1163.453369140625	-209.2888336181641	303.8765258789063	-1224.283813476563	-284.2127380371094	280.9032287597657	-1264.823486328125	-245.2824859619141	266.0341186523438	-1247.861450195313	-261.8692321777344	192.5461120605469	-1202.9814453125	-348.3021545410157	121.5920562744141	-1209.744506835938	-314.3595581054688	140.6997528076172	-1128.783935546875	-413.2185974121095	95.63620758056642	-1156.383544921875	-201.1678314208985	57.82568359375001	-1134.295043945313	-201.4684448242188	51.24283981323244	-1181.065795898438	-252.6965484619141	35.23052215576173	-1228.659545898438	-384.0951538085939	732.4603881835939	-969.1687011718752	-363.6909484863282	669.3147583007814	-973.0947265625002	-331.8954162597657	663.4464721679689	-979.3326416015627	-410.1539306640626	600.3521118164064	-978.4732666015627	-446.8848876953126	496.1446228027345	-988.529235839844	-448.8945617675782	491.4702758789064	-1117.109497070313	-602.8969726562501	403.1691894531251	-1023.928894042969	-690.9573974609376	463.8021850585939	-1004.377380371094	-687.5311279296876	417.9376831054689	-1015.0625	-730.1135864257814	397.0925903320314	-1049.921752929688	-856.018005371094	427.7790832519532	-1039.085693359375	-829.051452636719	419.806365966797	-1124.462890625	-895.496520996094	492.8674316406251	-1096.372680664063	-882.7410888671877	274.2070007324219	-1131.902221679688	-890.2558593750002	269.6917724609376	-1092.37890625	-929.9637451171877	302.2961120605469	-1045.109008789063	nan	nan	nan	nan	nan	nan	
